<svg id="eye-off" xmlns="http://www.w3.org/2000/svg" width="19" height="19" viewBox="0 0 19 19"><defs><style>.cls-1{fill:#8e9396;}</style></defs><title>eye-off</title><path class="cls-1" d="M9.5,6.32a2.93,2.93,0,0,1,3,2.89,2.76,2.76,0,0,1-.21,1.06L14,12a6.85,6.85,0,0,0,2-2.75A7,7,0,0,0,7.14,5.27L8.42,6.52A2.92,2.92,0,0,1,9.5,6.32ZM3.59,4.74L4.94,6.06,5.21,6.32A6.85,6.85,0,0,0,3,9.21a7,7,0,0,0,6.5,4.34,7.09,7.09,0,0,0,2.59-.49l0.25,0.24L14.07,15l0.75-.74L4.34,4Zm3.27,3.2,0.92,0.9a1.6,1.6,0,0,0,0,.38A1.75,1.75,0,0,0,9.5,10.95a1.7,1.7,0,0,0,.38,0l0.92,0.9a3,3,0,0,1-1.3.31,2.93,2.93,0,0,1-3-2.89A2.82,2.82,0,0,1,6.86,7.94Zm2.55-.45,1.86,1.82V9.22A1.75,1.75,0,0,0,9.51,7.48H9.41Z"/></svg>