<?xml version="1.0" encoding="utf-8"?>
<!-- Generator: Adobe Illustrator 21.1.0, SVG Export Plug-In . SVG Version: 6.00 Build 0)  -->
<svg version="1.1" id="m-gridTool" xmlns="http://www.w3.org/2000/svg" xmlns:xlink="http://www.w3.org/1999/xlink" x="0px" y="0px"
	 width="16px" height="16px" viewBox="0 0 16 16" style="enable-background:new 0 0 16 16;" xml:space="preserve">
<style type="text/css">
	.st0{fill:#5C7080;}
</style>
<g>
	<path class="st0" d="M13.6,1H2.4C1.6,1,1,1.6,1,2.4v11.2C1,14.4,1.6,15,2.4,15h11.2c0.8,0,1.4-0.6,1.4-1.4V2.4
		C15,1.6,14.4,1,13.6,1z M5.2,13.6H2.4v-2.8h2.8V13.6z M5.2,9.4H2.4V6.6h2.8V9.4z M5.2,5.2H2.4V2.4h2.8V5.2z M9.4,13.6H6.6v-2.8h2.8
		V13.6z M9.4,9.4H6.6V6.6h2.8V9.4z M9.4,5.2H6.6V2.4h2.8V5.2z M13.6,13.6h-2.8v-2.8h2.8V13.6z M13.6,9.4h-2.8V6.6h2.8V9.4z
		 M13.6,5.2h-2.8V2.4h2.8V5.2z"/>
</g>
</svg>
