<svg id="overlays" data-name="overlays" xmlns="http://www.w3.org/2000/svg" width="24" height="24" viewBox="0 0 24 24"><defs><style>.cls-1{fill:#757575;}</style></defs><title>group-2</title><path class="cls-1" d="M10.88,12H4.13A1.06,1.06,0,0,0,3,13.13v6.75A1.06,1.06,0,0,0,4.13,21h6.75A1.06,1.06,0,0,0,12,19.88V13.13A1.06,1.06,0,0,0,10.88,12Z"/><path class="cls-1" d="M15.38,7.5H5.25V9.75h9v9H16.5V8.63A1.06,1.06,0,0,0,15.38,7.5Z"/><path class="cls-1" d="M19.88,3H9.75V5.25h9v9H21V4.13A1.06,1.06,0,0,0,19.88,3Z"/></svg>
